<svg width="9" height="15" viewBox="0 0 9 15" fill="none" xmlns="http://www.w3.org/2000/svg">
    <path d="M8.27144 0.723774L8.71989 1.18236C8.85994 1.32669 8.9371 1.51871 8.9371 1.72393C8.9371 1.92904 8.85994 2.12128 8.71989 2.26561L3.63934 7.49687L8.72553 12.7342C8.86558 12.8783 8.94263 13.0705 8.94263 13.2756C8.94263 13.4807 8.86558 13.6731 8.72553 13.8173L8.27984 14.276C7.99001 14.5747 7.5179 14.5747 7.22807 14.276L1.15058 8.04037C1.01063 7.89627 0.912034 7.70425 0.912034 7.49732V7.49494C0.912034 7.28971 1.01074 7.0977 1.15058 6.9536L7.2116 0.723774C7.35154 0.579448 7.54366 0.500228 7.74285 0.5C7.94215 0.5 8.13161 0.579448 8.27144 0.723774Z" fill="#8A8C90"/>
</svg>
