<svg width="9" height="15" viewBox="0 0 9 15" fill="none" xmlns="http://www.w3.org/2000/svg">
    <path d="M1.64067 0.723774L1.19222 1.18236C1.05216 1.32669 0.975009 1.51871 0.975009 1.72393C0.975009 1.92904 1.05216 2.12128 1.19222 2.26561L6.27277 7.49687L1.18658 12.7342C1.04653 12.8783 0.969482 13.0705 0.969482 13.2756C0.969482 13.4807 1.04653 13.6731 1.18658 13.8173L1.63227 14.276C1.9221 14.5747 2.39421 14.5747 2.68404 14.276L8.76153 8.04037C8.90148 7.89627 9.00008 7.70425 9.00008 7.49732V7.49494C9.00008 7.28971 8.90136 7.0977 8.76153 6.9536L2.70051 0.723774C2.56057 0.579448 2.36845 0.500228 2.16926 0.5C1.96996 0.5 1.7805 0.579448 1.64067 0.723774Z" fill="#8A8C90"/>
</svg>
